<?xml version="1.0" standalone="no"?>
<!DOCTYPE svg PUBLIC "-//W3C//DTD SVG 20010904//EN"
 "http://www.w3.org/TR/2001/REC-SVG-20010904/DTD/svg10.dtd">
<svg version="1.0" xmlns="http://www.w3.org/2000/svg"
 width="70.000000pt" height="70.000000pt" viewBox="0 0 70.000000 70.000000"
 preserveAspectRatio="xMidYMid meet">
<metadata>
Created by potrace 1.11, written by Peter Selinger 2001-2013
</metadata>
<g transform="translate(0.000000,70.000000) scale(0.100000,-0.100000)"
fill="#000000" stroke="none">
<path d="M316 596 c-25 -39 -31 -44 -48 -35 -10 6 -22 17 -25 25 -8 22 -23 -2
-23 -38 0 -34 -12 -35 -53 -6 l-30 22 7 -45 c4 -24 11 -48 17 -53 17 -18 10
-27 -16 -20 -19 5 -25 2 -25 -9 0 -29 21 -64 50 -81 16 -9 32 -25 35 -36 4
-12 -12 -71 -39 -149 -25 -71 -46 -132 -46 -135 0 -3 6 -6 14 -6 8 0 20 16 26
35 11 35 12 35 69 35 56 0 57 -1 70 -35 7 -19 19 -35 27 -35 19 0 19 0 -30
133 l-44 117 27 0 c15 0 36 8 47 18 18 18 20 18 50 -1 l31 -21 -24 -34 c-43
-65 -25 -165 37 -197 33 -17 87 -20 124 -5 24 9 26 14 26 70 l0 60 -46 0 c-51
0 -59 -22 -10 -28 25 -3 27 -7 24 -40 -3 -36 -5 -37 -44 -40 -32 -2 -48 2 -70
21 -48 42 -38 148 18 178 11 6 43 9 70 7 27 -3 51 -1 54 3 6 10 -29 29 -55 29
-12 0 -21 5 -21 10 0 12 48 60 60 60 10 0 30 47 30 71 0 16 -3 18 -19 9 -30
-16 -31 -13 -16 31 8 23 15 50 15 60 0 18 -1 18 -32 -1 -42 -26 -48 -25 -48 4
0 50 -10 57 -36 28 l-25 -27 -17 25 c-9 13 -26 35 -37 48 l-20 23 -29 -45z
m59 -26 c27 -53 -22 -99 -53 -50 -10 17 -10 26 3 50 20 38 30 38 50 0z m-71
-66 c3 -7 -2 -15 -10 -18 -8 -3 -14 -15 -14 -26 0 -11 -4 -20 -9 -20 -11 0
-31 55 -31 87 0 24 0 24 30 7 16 -10 31 -23 34 -30z m144 -19 c-14 -40 -41
-63 -31 -26 3 14 0 23 -11 27 -24 9 -20 20 17 43 38 24 44 14 25 -44z m72 -5
c-14 -27 -27 -40 -41 -40 -15 0 -19 5 -15 16 3 9 6 20 6 25 0 7 41 30 68 38 1
1 -7 -17 -18 -39z m-316 19 c30 -14 42 -59 16 -59 -20 0 -35 15 -44 48 -8 25
-6 26 28 11z m185 -28 c21 -13 -22 -24 -61 -16 -22 5 -27 9 -17 16 18 11 60
11 78 0z m1 -47 c0 -2 -10 -14 -21 -25 l-22 -22 -18 24 c-26 33 -24 35 21 31
22 -2 40 -6 40 -8z m159 -18 c-16 -34 -53 -48 -108 -40 -25 4 -50 9 -54 11
-20 12 43 38 103 44 36 3 66 7 67 7 2 1 -2 -9 -8 -22z m-259 -1 c33 -17 39
-35 13 -36 -10 0 -27 -2 -38 -5 -47 -10 -115 18 -115 47 0 15 109 10 140 -6z
m50 -55 c0 -18 -40 -50 -63 -50 -23 0 -66 25 -57 32 4 4 64 18 113 27 4 0 7
-3 7 -9z m94 -5 c52 -8 57 -16 22 -34 -26 -14 -57 -8 -81 15 -19 19 -20 38 -1
31 7 -3 34 -9 60 -12z m-184 -142 c8 -27 16 -54 18 -60 2 -9 -9 -13 -37 -13
-23 0 -41 4 -41 8 0 20 32 112 38 112 4 0 14 -21 22 -47z"/>
</g>
</svg>
